<svg id="Layer_1" data-name="Layer 1" xmlns="http://www.w3.org/2000/svg" viewBox="0 0 940.13 662.95"><title>Untitled-1</title><path d="M452.84,285.17a159.7,159.7,0,0,0-82-43.92V366.68H496.8A159.65,159.65,0,0,0,452.84,285.17Z" transform="translate(-39.09 -174.21)" style="fill:none"/><path d="M500,433.73c-.15,0-.28,0-.42.09h0A161.17,161.17,0,0,0,374.08,559.17H500V430.63h0Z" transform="translate(-39.09 -174.21)" style="fill:none"/><path d="M500,242V559.17H374.08A161.17,161.17,0,0,1,499.61,433.81c-.16-1.06-.33-2.11-.48-3.17H374.66l-1.79,1.76a224.18,224.18,0,0,0-66,158.7l-.05,32H563.43V430.63h.05v-2.21l0-29.76V241.45H564v-.1H689.92a161.43,161.43,0,0,1-100.15,118v7.31H692.55a224,224,0,0,0,64.54-157.25l.06-32H500Z" transform="translate(-39.09 -174.21)" style="fill:#ffb41d"/><path d="M500,433.73v-3.1h-.9c.15,1.06.32,2.11.48,3.17h0C499.75,433.78,499.88,433.76,500,433.73Z" transform="translate(-39.09 -174.21)" style="fill:#ffb41d"/><path d="M499.13,430.63h.9V242c-.67-.69-1.34-1.36-2-2a224.12,224.12,0,0,0-158.81-65.71h-32.3V430.63H499.13ZM370.86,366.68V241.25A161.1,161.1,0,0,1,496.8,366.68Z" transform="translate(-39.09 -174.21)" style="fill:#061e5c"/><path d="M589.77,430.63H690V556.06a159.61,159.61,0,0,1-82-43.91,162.63,162.63,0,0,1-18.2-21.64v89.92a224.39,224.39,0,0,0,131.84,42.69h32.28V366.68H589.77Z" transform="translate(-39.09 -174.21)" style="fill:#061e5c"/><polygon points="524.47 448.9 524.88 448.9 524.88 256.42 524.94 256.42 524.93 254.2 524.88 224.45 524.88 67.24 524.47 67.24 524.47 448.9" style="fill:#fff"/><text transform="translate(0 576.26)" style="font-size:78.07988739013672px;fill:#061e5c;font-family:NewsGothicBT-Bold, NewsGoth BT;font-weight:700;letter-spacing:0.30000448501170646em">E<tspan x="70.43" y="0" style="letter-spacing:0.2731452253630441em">K</tspan><tspan x="143.3" y="0" style="letter-spacing:0.2999982314006125em">ONKAR </tspan><tspan x="567.96" y="0" style="letter-spacing:0.2731452253630441em">K</tspan><tspan x="640.83" y="0" style="letter-spacing:0.3000107386228005em">OH</tspan><tspan x="796.29" y="0" style="letter-spacing:0.28241307700432877em">L</tspan><tspan x="861.04" y="0" style="letter-spacing:0.3000107386228005em">U</tspan></text><text transform="translate(244.18 649.65)" style="font-size:56.37236404418945px;fill:#061e5c;font-family:NewsGothicBT-Bold, NewsGoth BT;font-weight:700"><tspan style="letter-spacing:-0.01757461609155485em">P</tspan><tspan x="34.74" y="0">ure Oil, </tspan><tspan x="231.46" y="0" style="letter-spacing:-0.01759193951796348em">P</tspan><tspan x="266.2" y="0">ure Life</tspan></text></svg>